# xmcd CD database file
#
# Track frame offsets:
#	150
#	43062
#	81841
#	109146
#	152761
#	184634
#	227650
#	261263
#	289885
#	305046
#	313056
#	320222
#
# Disc length: 4416 seconds
#
# Revision: 1
# Processed by: cddbd v1.4b41PL1 Copyright (c) Steve Scherf et al.
# Submitted via: CDValet v3.31 - Copyright (c) 1997 Greg Leichner
#
DISCID=ad113e0c
DTITLE=Various Artist - X Fade Label Showcase: Distinct'ive Re
DTITLE=cords
DYEAR=1900
DGENRE=
TTITLE0=BT&Hybrid - Running Down The Way Up
TTITLE1=Pob and Taylor - Baba (Seismic Mix)
TTITLE2=Golden Girls - Kinetic (Commie's Mix)
TTITLE3=Hybrid - If I Survive (original mix)
TTITLE4=Truman - Theme From Wide Angle
TTITLE5=Hybrid - Finished Symphony
TTITLE6=The Prophets of Sound - Little Things (Prophets of Soun
TTITLE6=d original mix)
TTITLE7=The Prophets of Sound - Pachanga (Prophets of Sound ori
TTITLE7=ginal mix)
TTITLE8=DJ Eric - Presents Unreleased Dubs (unreleased)
TTITLE9=The Scratch Files: The Flare, Flare over backing track
TTITLE10=The Scratch Files: The Flare, Backing track (to practi
TTITLE10=se to)
TTITLE11=The Scratch Files: The Flare, Variations on the Flare
EXTD=
EXTT0=
EXTT1=
EXTT2=
EXTT3=
EXTT4=
EXTT5=
EXTT6=
EXTT7=
EXTT8=
EXTT9=
EXTT10=
EXTT11=
PLAYORDER=
